HIERARCHY
ROOT Hips
{
	OFFSET -3.958830 18.904000 13.208200
	CHANNELS 6 Xposition Yposition Zposition Zrotation Yrotation Xrotation 
	JOINT LHipJoint
	{
		OFFSET 0.000000 0.000000 0.000000
		CHANNELS 3 Zrotation Yrotation Xrotation
		JOINT LeftUpLeg
		{
			OFFSET 1.800000 -1.400000 0.085000
			CHANNELS 3 Zrotation Yrotation Xrotation
			JOINT LeftLeg
			{
				OFFSET 2.215000 -6.000000 0.000000
				CHANNELS 3 Zrotation Yrotation Xrotation
				JOINT LeftFoot
				{
					OFFSET 2.500000 -6.900000 0.000000
					CHANNELS 3 Zrotation Yrotation Xrotation
					JOINT LeftToeBase
					{
						OFFSET 0.200000 -0.500000 1.950000
						CHANNELS 3 Zrotation Yrotation Xrotation
						End Site
						{
							OFFSET 0.000000 0.000000 0.000000
						}
					}
				}
			}
		}
	}
	JOINT RHipJoint
	{
		OFFSET 0.000000 0.000000 0.000000
		CHANNELS 3 Zrotation Yrotation Xrotation
		JOINT RightUpLeg
		{
			OFFSET -1.800000 -1.400000 0.085000
			CHANNELS 3 Zrotation Yrotation Xrotation
			JOINT RightLeg
			{
				OFFSET -2.215000 -6.000000 0.000000
				CHANNELS 3 Zrotation Yrotation Xrotation
				JOINT RightFoot
				{
					OFFSET -2.500000 -6.900000 0.000000
					CHANNELS 3 Zrotation Yrotation Xrotation
					JOINT RightToeBase
					{
						OFFSET -0.200000 -0.500000 1.950000
						CHANNELS 3 Zrotation Yrotation Xrotation
						End Site
						{
							OFFSET 0.000000 0.000000 0.000000
						}
					}
				}
			}
		}
	}
	JOINT LowerBack
	{
		OFFSET 0.000000 0.000000 0.000000
		CHANNELS 3 Zrotation Yrotation Xrotation
		JOINT Spine
		{
			OFFSET -0.087000 1.940000 -0.288900
			CHANNELS 3 Zrotation Yrotation Xrotation
			JOINT Spine1
			{
				OFFSET 0.000000 1.950000 0.060000
				CHANNELS 3 Zrotation Yrotation Xrotation
				JOINT Neck
				{
					OFFSET 0.000000 0.000000 0.000000
					CHANNELS 3 Zrotation Yrotation Xrotation
					JOINT Neck1
					{
						OFFSET 0.000000 1.600000 0.340000
						CHANNELS 3 Zrotation Yrotation Xrotation
						JOINT Head
						{
							OFFSET 0.000000 1.667000 -0.240000
							CHANNELS 3 Zrotation Yrotation Xrotation
							End Site
							{
								OFFSET 0.000000 0.000000 0.000000
							}
						}
					}
				}
				JOINT LeftShoulder
				{
					OFFSET 0.000000 0.000000 0.000000
					CHANNELS 3 Zrotation Yrotation Xrotation
					JOINT LeftArm
					{
						OFFSET 2.700000 1.550000 -0.730000
						CHANNELS 3 Zrotation Yrotation Xrotation
						JOINT LeftForeArm
						{
							OFFSET 5.450000 0.000000 0.000000
							CHANNELS 3 Zrotation Yrotation Xrotation
							JOINT LeftHand
							{
								OFFSET 3.450000 0.000000 0.000000
								CHANNELS 3 Zrotation Yrotation Xrotation
								JOINT LeftHandIndex1
								{
									OFFSET 0.750000 0.000000 0.000000
									CHANNELS 3 Zrotation Yrotation Xrotation
									End Site
									{
										OFFSET 0.000000 0.000000 0.000000
									}
								}
							}
						}
					}
				}
				JOINT RightShoulder
				{
					OFFSET 0.000000 0.000000 0.000000
					CHANNELS 3 Zrotation Yrotation Xrotation
					JOINT RightArm
					{
						OFFSET -2.700000 1.550000 -0.730000
						CHANNELS 3 Zrotation Yrotation Xrotation
						JOINT RightForeArm
						{
							OFFSET -5.450000 0.000000 0.000000
							CHANNELS 3 Zrotation Yrotation Xrotation
							JOINT RightHand
							{
								OFFSET -3.450000 0.000000 0.000000
								CHANNELS 3 Zrotation Yrotation Xrotation
								JOINT RightHandIndex1
								{
									OFFSET -0.750000 0.000000 0.000000
									CHANNELS 3 Zrotation Yrotation Xrotation
									End Site
									{
										OFFSET 0.000000 0.000000 0.000000
									}
								}
							}
						}
					}
				}
			}
		}
	}
}
MOTION
Frames: 9
Frame Time: 0.016667
0.764500 16.380760 -2.245160 0.294476 -16.186997 1.105326 -15.369827 12.090862 4.471295 8.447805 -9.584721 -28.716737 -18.511277 16.873277 44.567114 0.404801 10.640315 1.208552 0.142470 -0.277240 -0.144300 18.379364 -8.322223 4.119084 -4.215660 7.580481 -48.300095 3.939655 -6.672754 31.243662 -0.245336 -3.851791 3.395479 -0.108430 0.750890 0.245930 -3.478420 -3.809725 -8.812632 11.806540 -9.027618 31.783397 -3.743024 -4.478460 1.638069 2.086586 -9.480209 -11.737635 -20.794431 10.929574 29.501190 -8.622940 6.912180 -14.273860 -20.112924 -11.421120 3.347161 -18.400454 -3.485789 -5.617879 -60.600923 -73.411318 39.374959 -3.941778 2.969765 0.888150 0.379200 -0.198970 0.379610 16.625753 16.341611 9.286235 31.224117 -5.435005 -13.828310 31.307180 60.687992 13.247759 1.416442 -1.456955 -0.522410 0.607790 0.258160 -0.242270 
0.771330 16.342020 -2.254490 0.031970 -16.220423 0.911426 -15.377516 11.986834 4.467230 8.831717 -9.642844 -28.965112 -18.629956 17.306655 45.424323 0.474076 10.820615 1.136180 0.206460 -0.207300 -0.105280 18.400976 -8.199402 4.238962 -4.437848 8.050732 -49.552712 3.643538 -7.070132 34.102809 -0.339866 -4.322011 3.206213 -0.077120 0.711600 0.266200 -3.518533 -3.792544 -8.869641 12.235016 -9.391898 32.352374 -3.735939 -4.689765 1.033636 1.991871 -9.608092 -11.611553 -21.024124 11.238695 29.418753 -8.141810 6.776800 -13.835460 -20.620192 -11.896151 3.361935 -19.566367 -3.480357 -6.235860 -54.097566 -70.058960 32.524494 -3.860335 3.058150 0.866040 0.365000 -0.182450 0.390250 17.306885 16.845361 8.998632 31.344918 -3.509979 -13.311412 31.487758 59.172436 12.937104 1.449979 -1.491287 -0.476230 0.558360 0.214720 -0.234870 
0.777710 16.285470 -2.261020 -0.068211 -16.090979 0.101939 -15.416572 11.910423 4.446378 9.089440 -9.782155 -28.859049 -18.776910 17.946066 46.673408 0.519441 11.138180 1.025925 0.237040 -0.186020 -0.051050 18.398954 -7.995515 4.398007 -5.309096 8.548974 -51.184293 3.356192 -7.996097 39.307592 -0.506661 -5.247065 2.863232 -0.046770 0.682350 0.255180 -3.476743 -3.954333 -8.982863 12.066707 -9.665300 33.285288 -3.127332 -5.025739 0.375132 1.895241 -9.580312 -11.390301 -21.176478 11.421925 30.285320 -8.393920 6.561330 -13.730690 -21.361260 -12.776668 3.368200 -22.225998 -4.249571 -6.934580 -43.225249 -63.488278 21.839126 -3.802250 3.003158 0.874310 0.353270 -0.176150 0.372290 18.215698 17.700113 8.494200 31.431798 -0.207351 -12.508300 32.513038 56.917589 12.830911 1.486582 -1.454505 -0.484760 0.564880 0.202850 -0.258510 
0.780920 16.232970 -2.261740 -0.500404 -15.957783 -1.023920 -15.450658 11.809060 4.414355 9.747729 -9.817178 -28.694074 -18.823540 18.908720 48.669124 0.614442 11.550891 0.862143 0.321360 -0.081530 0.001870 18.407083 -7.758718 4.578868 -6.602984 9.226787 -52.595332 3.923461 -9.549891 45.349254 -0.784727 -6.442117 2.443277 0.002060 0.602090 0.252340 -3.464951 -4.102334 -9.117920 12.481009 -10.069629 34.374526 -2.671108 -5.289607 -0.163155 1.877805 -9.856914 -11.544778 -22.536105 11.981016 32.029788 -8.245660 5.932150 -15.331540 -21.623448 -13.887248 3.581408 -25.826227 -5.563962 -7.274485 -33.038535 -55.343863 12.903576 -3.698961 2.918918 0.909810 0.292980 -0.115450 0.379520 18.521404 19.084537 8.162232 32.595781 3.224898 -12.049787 32.376813 54.548871 12.061674 1.519724 -1.411270 -0.448310 0.556720 0.159860 -0.262290 
0.777930 16.201630 -2.257960 -0.748750 -16.286769 -2.725604 -15.461517 11.837354 4.296256 10.057769 -9.447519 -27.693214 -18.036154 19.450120 50.383796 0.688107 11.795663 0.758290 0.358730 -0.037540 0.053170 18.406149 -7.631757 4.729595 -8.094242 9.929309 -52.881621 4.923900 -11.304839 50.872159 -1.065872 -7.593333 2.054693 0.010870 0.518920 0.232520 -3.454922 -4.224735 -9.212048 12.854765 -10.371952 36.050203 -2.674822 -5.390398 -1.082382 2.115537 -9.952176 -12.143291 -23.831138 12.862845 34.482330 -8.396660 5.786070 -16.491730 -22.815334 -15.555216 4.155983 -27.700219 -5.694491 -7.140773 -25.738933 -46.858474 7.339614 -3.608283 2.814755 0.949790 0.223200 -0.059170 0.359070 19.306711 21.004892 8.222061 34.052911 5.711142 -12.109728 32.627522 54.112921 11.903232 1.567738 -1.362703 -0.425540 0.550870 0.135520 -0.274450 
0.769670 16.173710 -2.245910 -0.844932 -16.735016 -4.299995 -15.454755 11.823922 4.178024 10.372908 -8.926732 -26.646970 -17.582313 20.194547 51.876778 0.746724 12.114756 0.647740 0.389090 -0.027480 0.081720 18.423214 -7.540676 4.869527 -9.627578 10.705161 -52.979607 5.623195 -13.146574 56.457297 -1.371087 -8.792378 1.680298 0.011000 0.486460 0.239180 -3.503151 -4.217724 -9.295331 13.582375 -10.539428 36.786454 -3.094657 -5.392839 -1.580164 2.255564 -9.844953 -12.792995 -24.754912 13.568514 37.193728 -7.819850 5.167660 -16.875890 -24.004157 -17.110517 4.750886 -28.991627 -5.792477 -6.250964 -19.773933 -38.478877 3.691196 -3.568949 2.705601 1.004560 0.184280 -0.026100 0.354540 20.238443 22.590728 8.369427 36.045299 7.510645 -12.357293 33.546668 55.091323 12.350420 1.569563 -1.340690 -0.420250 0.556750 0.135110 -0.287510 
0.759550 16.152720 -2.231110 -0.982688 -16.870049 -5.480636 -15.426941 11.832565 4.030057 10.329444 -8.283149 -25.700378 -16.496401 20.546150 53.274495 0.806760 12.302546 0.599254 0.374040 -0.044240 0.067330 18.454283 -7.517554 4.984784 -10.906159 11.460409 -52.781734 5.965022 -14.881414 61.690984 -1.642421 -9.903133 1.373647 -0.003300 0.485930 0.216320 -3.596194 -4.131814 -9.328530 14.823231 -10.871354 36.787737 -3.760662 -5.499063 -2.015854 2.388503 -9.798966 -13.520075 -25.550719 14.188671 39.200228 -7.415020 4.707820 -15.921610 -25.348459 -18.327701 5.499851 -29.275004 -4.751598 -5.379122 -16.726757 -32.622391 2.115640 -3.549903 2.623822 1.015230 0.170010 -0.026960 0.352000 21.334673 23.872261 8.615638 38.117633 8.871640 -12.576696 34.863037 57.878374 13.543530 1.577086 -1.338819 -0.427060 0.574250 0.141610 -0.283370 
0.742240 16.129840 -2.209000 -1.273809 -17.123531 -6.475808 -15.384564 11.845982 3.846315 10.448145 -7.264427 -24.742870 -15.261102 20.845357 54.358203 0.851135 12.409105 0.565742 0.390180 -0.029050 0.080570 18.497687 -7.540841 5.081045 -11.950363 12.432279 -52.163614 6.293493 -16.538158 66.435813 -1.908724 -10.892536 1.103305 0.004080 0.455890 0.186720 -3.732394 -3.951934 -9.300389 16.629696 -11.073551 36.030042 -4.460339 -5.511623 -1.676851 2.416326 -10.097563 -14.077825 -26.783959 14.675485 40.036170 -6.764710 3.775960 -15.956980 -25.703737 -18.804133 6.194149 -30.127753 -3.427552 -4.941649 -14.547711 -30.030503 1.338344 -3.501802 2.585942 1.024450 0.131010 -0.017880 0.351840 21.626818 24.745213 8.815053 40.257363 11.046829 -12.214966 38.772960 63.688661 17.190687 1.613591 -1.377648 -0.425170 0.581280 0.123360 -0.280660 
0.700650 16.113620 -2.180330 -1.570915 -16.896468 -7.361007 -15.342450 11.950619 3.679672 10.553802 -6.322707 -23.820007 -13.606346 20.692955 55.245525 0.878124 12.405727 0.586760 0.377070 -0.036800 0.078990 18.518344 -7.662697 5.072566 -12.421534 13.025253 -50.522591 6.333614 -17.933800 70.297775 -2.120386 -11.697635 0.914631 -0.000420 0.460990 0.149810 -3.810780 -3.828643 -9.246493 18.075442 -10.752486 34.467810 -4.661357 -5.323288 -0.695013 2.499896 -9.964672 -14.596752 -26.721392 14.843139 41.378345 -6.783900 3.580600 -14.445330 -25.646346 -19.280136 6.907198 -30.455727 -2.079277 -4.855508 -13.269385 -29.617289 1.078458 -3.479885 2.551685 1.007970 0.129830 -0.029640 0.360050 21.381877 25.471705 9.131524 41.619482 13.055473 -10.936368 45.216706 68.209948 22.400038 1.679677 -1.398743 -0.438520 0.598950 0.105180 -0.274340 
